<?xml version="1.0" encoding="utf-8"?>
<!-- Generator: Adobe Illustrator 27.7.0, SVG Export Plug-In . SVG Version: 6.00 Build 0)  -->
<svg version="1.1" id="Layer_1" xmlns="http://www.w3.org/2000/svg" xmlns:xlink="http://www.w3.org/1999/xlink" x="0px" y="0px"
	 viewBox="0 0 392 392" style="enable-background:new 0 0 392 392;" xml:space="preserve">
<style type="text/css">
	.st0{clip-path:url(#SVGID_00000061430251545681265640000013174198083346875308_);}
	.st1{fill:#FAF28A;}
	.st2{fill:#0B1A2C;}
	.st3{fill:#FFFFFF;}
	.st4{fill:#0D1D30;}
	.st5{fill:none;stroke:#010101;stroke-width:0.2567;stroke-miterlimit:10;}
	.st6{fill:#EFC11A;}
	
		.st7{fill:url(#SVGID_00000097482914787621005510000008436731561817767821_);stroke:#FFFFFF;stroke-width:0.5134;stroke-miterlimit:10;}
	
		.st8{fill:url(#SVGID_00000063609141511118003660000009134619766379096216_);stroke:#FFFFFF;stroke-width:0.5134;stroke-miterlimit:10;}
	.st9{clip-path:url(#SVGID_00000058560187414475296140000016478369876940830855_);}
</style>
<g id="Layer_3">
	<g>
		<defs>
			<rect id="SVGID_1_" x="17.8" y="10.4" width="374.1" height="344.8"/>
		</defs>
		<clipPath id="SVGID_00000058578340137573069430000014207653393147594428_">
			<use xlink:href="#SVGID_1_"  style="overflow:visible;"/>
		</clipPath>
		<g style="clip-path:url(#SVGID_00000058578340137573069430000014207653393147594428_);">
			<ellipse class="st1" cx="203.6" cy="197" rx="175.6" ry="175.6"/>
			<path class="st2" d="M203.6,30.5c92,0,166.6,74.6,166.6,166.6s-74.6,166.6-166.6,166.6S37,289,37,197S111.7,30.5,203.6,30.5
				 M203.6,12.5c-24.9,0-49.1,4.9-71.9,14.5c-22,9.3-41.7,22.6-58.7,39.6s-30.3,36.7-39.6,58.7C23.9,148.1,19,172.2,19,197.2
				s4.9,49.1,14.5,71.9c9.3,22,22.6,41.7,39.6,58.7s36.7,30.3,58.7,39.6c22.8,9.6,46.9,14.5,71.9,14.5s49.1-4.9,71.9-14.5
				c22-9.3,41.7-22.6,58.7-39.6c16.9-16.9,30.3-36.7,39.6-58.7c9.6-22.8,14.5-46.9,14.5-71.9s-4.9-49.1-14.5-71.9
				c-9.3-22-22.6-41.7-39.6-58.7c-16.9-16.9-36.7-30.3-58.7-39.6C252.8,17.3,228.6,12.5,203.6,12.5L203.6,12.5z"/>
		</g>
	</g>
</g>
<g id="Layer_1_00000156560937399280997430000009894378199017641865_">
	<g>
		<path class="st3" d="M201.6,374.1c0,0,38.6,0.5,70.3-8c0,0,37.7-9.8,62.3-11.4c0,0,17.8-3.1,29.7,1.3c0,0,8.5,3.5,9.2-7.4
			c0,0,2.7-14.5,0-29.1c0,0-1.8-9.5-4-12.8c0,0,10.5-0.1,14.2-13.2c0,0,0.6-2-3.9,0c0,0-1.4,2.3-10.4-8c0,0-7.1-8.2-9.1-18.9
			c0,0-2.2-9.1-10.9-14c0,0-20.5-9.6-38.9-17.7s-27.9-9.9-33.4-19.3c0,0-5.3-12.7,3.9-22.1c0,0,5.5-6.3,17.2-5.8
			c0,0,0.8,8.7-10.3,24.1l-0.1,1.3c0,0,13.5,1.3,26.8-2.6c0,0,18.5-6,26.1-26.3c0,0,6.5-11.8,5.4-30.9c0,0-2.1-20-11.6-28.5
			c0,0-4.7-4.5-8.3-7.7c0,0-1.8-0.3-1.8-4.5c0,0-0.3-13.1-9.3-14.6c0,0-1.5-11.6-10.2-22.1c0,0-7.6-9.2-12.8-10.3
			c0,0-2.3-0.6-14.8,0s-27.9-2.7-36.1-7.7c0,0-10.7-7.3-20.9-9.5c0,0-14.6-0.6-25.3,3.2c0,0-5.9,2.6-13.1,1.3c0,0-32.6,0-55.7,11.2
			c0,0-32.4,14.2-40.3,22.5c0,0-14,16.3-16.2,24.4c0,0-7.7,17.2-11,24.8c0,0-11.7,27-18.6,34.1c0,0-10.1,10.6-14.4,15.6
			c0,0,8-1.2,14.1-2.4c0,0-9,16.5-8.3,41.3c0,0,1.3,19,3.5,26l11.8-16.2c0,0-2.3,28.4-1.5,37.7c0,0-0.4,13.3,9.5,25.5
			c0,0-3.2,5.3-15.7,14.4c0,0-21.9,15-27.9,26.3c0,0-11.7,19.5-10.4,31.3c0,0,0.1,9.9,14.1-0.8c0,0,21.6-13.5,51.7-12.7
			c0,0,31.3,0.3,46,3.9c0,0,30.5,8.1,48,11C160.1,370.9,183.9,374.6,201.6,374.1z"/>
		<path class="st4" d="M320.5,246.9c0,0-33.1-11.6-43.5-20.5c0,0-10.4-6.8-7.2-23.2c0,0,3.5-26.7,37.4-23c0,0,3.1,12.7-4.3,25.3
			c0,0,20.4-1,28.2-15.8c0,0,10.3-16,9.1-32.9c0,0,0.7-15.1-11.9-28.2c0,0-8.9-7.4-9.8-10.4c0,0-1.2-3.8-1.2-8.6
			c0,0-0.2-2.8-4.8-5.2c0,0-2.9-0.7-3.5-5.5c0,0-6.2-18.7-15.7-25.7c0,0-42.8,2.8-64.4-13.3c0,0-2.8-3.2-14.9-3.4
			c0,0-4.4-0.1-11.9,1.8c0,0-8.7,3.3-20,2.5c0,0-28.5,0.9-50.8,10.8c0,0-20.9,8.4-37.7,23.3c0,0-11.2,10.1-19.2,30.5
			c0,0-17.5,41.6-24.9,47.9c0,0,12-3,16.2-5.4c0,0-11.6,8.9-17.2,20.4c0,0-9.8,17.2-7.2,41.7c0,0,12.9-20.6,22.8-17.8
			c0,0-8.7,21.3-9.3,40.3c0,0-1.5,24.8,3.5,33.7c0,0,3.9-22.2,20.1-29.4c0,0,3.5,22.8-9.8,39.5c0,0-10.4,12.8-24.6,22.8
			c0,0-29.4,22.2-32.4,42.6c0,0,17.7-11.7,47.6-12c0,0,36.9-2.8,57.3,3.1c0.1,0,0.3,0.1,0.4,0.1c20.3,6.1,46.2,10.9,51.2,11.6
			s47.9,5.4,75.3-0.4s50.9-10.1,61.3-12.1s38.7-9.1,56-4.3c0,0,3.9,1.2,4.4,1.2c0,0,2.7,0.5,3.7-10.6c0,0,1-19.3-9.2-41
			c0,0,12.6,1.8,14.6,0.3c0,0-10.1-2.7-17.3-21.9c0,0-1.1-2.6-2.2-6.4c0,0-0.9-6.5-10.7-12c0,0-16.5-7.3-17.5-7.8l-5.6-2.7
			L320.5,246.9z"/>
		<path class="st5" d="M286.5,96.2c0,0,2.8,6.4-3.6,10.5c0,0-6.4,4.6-6.4,8c0,0-24.9-22.1-33.1-29.5c0,0-17.2-16.2-30.5-16.9
			c0,0-16.7-2.6-44.9,6.7c0,0,31.1-12.8,47.7-11.6c0,0,13.9,0.8,24.6,13.3c0,0,18.2,20.3,33.9,24.9
			C274.1,101.6,285.6,105.2,286.5,96.2z"/>
		<path class="st5" d="M272.5,80.6c0,0,12.3,8.7,17.7,14.1C290.4,94.7,289.2,83.5,272.5,80.6z"/>
		<path class="st5" d="M219.1,103.2c0,0,5.7,5.1,10.4,5.1c0,0,9.6,0.7,13.5-2c0,0,0.4-0.4,0.6,0c0,0-3.1,3.3-11.8,3
			c0,0-7.7,0.7-13.4-5.9L219.1,103.2z"/>
		<path class="st3" d="M226.6,101.8c0,1.1-0.9,1.9-1.9,1.9c-1.1,0-1.9-0.9-1.9-1.9c0-1.1,0.9-1.9,1.9-1.9S226.6,100.7,226.6,101.8z"
			/>
		<path class="st6" d="M312.6,130.6c0,0-1.3,2.8,0,4.9c0,0,2.8,5.1-3.3,6.7c0,0-8-2.1,0-9L312.6,130.6z M213.1,171.6
			c0,0,11-7.8,44.3-9.6c0,0,30.6-2.8,47.5,7c0,0-1.9-11.7-22.6-15s-47.4,4.3-47.4,4.3s3.7-8,35.2-11.2s39.5,13.3,40.2,15
			c0,0,4,7.3,4,16.9c0,0-1.1,13.2-4,20.8c0,0,14.1-5.6,20.4-21.7c0,0,3.5-10.5,3.1-15.2c0,0-0.1-14.3-1.9-18.4
			c0,0-6.9-18.3-16.2-21.1c0,0-9.5-2.1-15.7,7.2c0,0-0.4-7.5,8.4-11.7c0,0,4-2,3.7-4.9c0,0-0.5-7.6-17-1.4c0,0-10.7,5.2-17.6,18.4
			c0,0-0.6,1.4-0.3,5.3c0,0,0.3,3.5-4.9,3c0,0-11.1-2.6-21.4,1.7c0,0-13.5,4.2-24.5,10.9C226.6,152,214.4,160,213.1,171.6z"/>
		<path class="st5" d="M110.3,167.9c0,0-6.7,21.6-3.3,40.3c0,0,1,6.1,5.7,2.4c0,0,20.8-13.8,25.9-24c0,0-18.4,20.4-25.8,18
			c0,0-2.9-0.8-2.9-8C110.1,196.6,109.9,169.2,110.3,167.9z"/>
		<path class="st5" d="M110.2,211.9c0,0-3.7,19.5-1.6,23.6c0,0,0.8,2.1,3.3,1.3c0,0,12.5-7.5,15.6-13.3c0,0-11.3,11.4-15.1,8.9
			c0,0-2.5,0.1-1.8-13.2L110.2,211.9z"/>
		<path class="st5" d="M126.7,202.4c0,0-1.5,15.1,2.7,23.6c0,0,1.3,3.4,4.4,0.6c0,0,10.9-9.8,12.8-16.8c0,0-5.7,8.1-10.1,11.5
			c0,0-3.7,3.9-5.5-0.3C131.1,221,127.4,211.6,126.7,202.4z"/>
		<path class="st5" d="M343.9,74.9"/>
		<path class="st3" d="M319.5,134.2c0,0-5.6-4.6-2.1-7.2c0,0,3.1-1,5.9,5.1c0,0,20.8,28,0,56.7C323.5,188.9,340.1,161.4,319.5,134.2
			z"/>
		<path class="st6" d="M59.8,265.5c0,0,11.5-13.1,14.4-16.6c0,0-4.8,2.8-8.2,3c0,0-1.3-17.2,4.8-37.4c0,0,3.9-12.3,8-19.1
			c0,0-8.6-1.8-23.3,6.1c0,0,0.9-5.3,6.9-11.7c0,0,10.9-12.7,12.9-19.9c0,0-2.5,5.1-15.1,17c0,0-9,8.5-10.8,22.2v0.9
			c0,0,7-8.3,23.3-11c0,0-2.7,6.8-6.2,18.3c0,0-3.2,11.2-5.9,29.4C60.7,246.8,59.3,259.5,59.8,265.5z"/>
		<path class="st6" d="M86.2,139.7c0,0-15,18.9-21.9,21.1c0,0,9.7-12.2,13.1-20.2c0,0,9.6-18.2,10.9-21.8c0,0,3.7-8.9,13.4-14.4
			c0,0-7,5.4-11.8,15.5c0,0-5.6,11.8-9.1,18.1c0,0-3.5,5.8-2.2,8C78.7,146,81.6,142.7,86.2,139.7z"/>
		<path class="st5" d="M153.1,121.5c0,0,28.2-0.3,34.6,1.9c0,0-3.6-11.1,0-16.6c0,0-3.5-3.6-17.6-4.6c0,0-16.5-0.1-19.6,0
			c0,0,7.9-6.5,23.2-8.7c0,0-1.2-2.9-11.3-6c0,0-14.6-3.9-23.6-4.9c0,0-1.6-3,12.2-9.3c0,0,5.5-2.5,7.2-4.4c0,0-5.6,2.4-11.9,5.8
			c0,0-5.2,3-8.6,4.7c0,0-7.2,3.9-12.2,7.3c0,0,38.1-2.1,44.2,5.9c0,0-25.4,4.2-38.5,14c0,0,32.8-2.6,40,2.4c0,0,2.2,1.7,2.7,3.1
			c0,0-4.8,3-16.3,7.3C157.4,119.5,153.1,120.8,153.1,121.5z"/>
		
			<linearGradient id="SVGID_00000030488771037506767540000004799835843412436377_" gradientUnits="userSpaceOnUse" x1="143.2589" y1="125.7109" x2="114.0908" y2="291.1306" gradientTransform="matrix(1 0 0 -1 0 392.0756)">
			<stop  offset="0" style="stop-color:#2F415F"/>
			<stop  offset="0.1524" style="stop-color:#314666"/>
			<stop  offset="0.4116" style="stop-color:#37547C"/>
			<stop  offset="0.7439" style="stop-color:#3E6DA4"/>
			<stop  offset="0.8834" style="stop-color:#3F7ABE"/>
		</linearGradient>
		
			<path style="fill:url(#SVGID_00000030488771037506767540000004799835843412436377_);stroke:#FFFFFF;stroke-width:0.5134;stroke-miterlimit:10;" d="
			M72.6,242.8c0,0,6.9-6.8,10.5-14.2c0,0,2.8,3.8,6.8,24.1c0,0,2.7,13.8,1.6,22.8c0,0,14.3-10.4,37.1-16.3c0,0,23.3-5.5,43.3-0.6
			c0,0,5,1.3,11.4,0.1c0,0-8.3-4.5-11.6-17.2c0,0-1.9-5.5-2.5-15.9c0,0-0.6-10.7,2.2-26.5c0,0-9.1,12.9-13.6,35
			c0,0-8.6-14.3-10.1-30c0,0-1.7-15,2.8-26.7c0,0,6.2-15.8,16.7-25.1c0,0,6.2-6.2,20-16.1c0,0-6.3-2.9-28.8-6.1
			c0,0-20.9-3.5-39.2,5.4c0,0,2.8-3.5,18.3-12.1c0,0,8.1-4.7,11-7.1c0,0-26.7-3.9-43.9,4.4c0,0,5.4-8.9,22.8-19.3
			c0,0-15.8-2.3-25.7,3c0,0-6.4,3.2-11.1,10.2c0,0-1.8,3.2-2.8,5.4c0,0-5.9,12.1-8.1,16.3c0,0-2.8,5.7-3.3,6.5c0,0-1.6,3-3,5.2
			c0,0-7,10.4-9,12.7c0,0,3.8-1.2,11.6-9.4c0,0,7.6-8.3,8.8-9.9c0,0,7.1-8.4,9.3-10.6c0,0,2.7-3.2,5.6-4.2l0.9-0.1
			c0,0-2.2,2.5-3.5,4.5c0,0-5.1,8.1-6.4,16.4c0,0-0.3,1.5-1.6,6.3c0,0-2.3,5.2-0.3,8.9c0,0,10.8-7.3,27-8.3c0,0-12.3,6.8-22.5,14.4
			c0,0-8.2,5.9-15.4,16.5c0,0-1.3-1.4-0.2-6.2c0,0,2.6-10.4,2.4-16c0,0-2.3,3.1-4.7,9.6c0,0-5.9,13.6-8.9,18.4c0,0,8.2,0.4,17.3-3.1
			c0,0,2.4-0.9,5.5-5.3c0,0,0,4.4-3.8,12c0,0-1.5,2.9-5.2,15.4c0,0-3.8,10.4-5.8,18.3c0,0.1,0,0.1,0,0.2
			C72.7,236.4,71.2,241.3,72.6,242.8z"/>
		
			<linearGradient id="SVGID_00000145031592631372624770000007408359288493419449_" gradientUnits="userSpaceOnUse" x1="234.2534" y1="141.5479" x2="204.1018" y2="331.9175" gradientTransform="matrix(1 0 0 -1 0 392.0756)">
			<stop  offset="0" style="stop-color:#2F415F"/>
			<stop  offset="0.1524" style="stop-color:#314666"/>
			<stop  offset="0.4116" style="stop-color:#37547C"/>
			<stop  offset="0.7439" style="stop-color:#3E6DA4"/>
			<stop  offset="0.8834" style="stop-color:#3F7ABE"/>
		</linearGradient>
		
			<path style="fill:url(#SVGID_00000145031592631372624770000007408359288493419449_);stroke:#FFFFFF;stroke-width:0.5134;stroke-miterlimit:10;" d="
			M216.8,253.3c0,0-0.6-4.8-6.9-13.7c0,0-4.8-5.9-6.2-13.7c0,0-4.6-18-4.1-24.8c0,0-0.1-6.8,2.1-11.7c0,0-2.1,1.9-6.4,1.9
			c0,0-0.5-0.7,1-1.9c0,0,5.6-4.7,7.3-12.6s9.5-18,9.5-18s7.4-9.9,15.7-15.6c0,0,8.9-6.3,22.7-10.1c0,0,4.6-1.4,16.3-3.3
			c0,0,6.4-1.3,4.3-3.8c0,0-3.3-3.7-7.3-4.3c0,0-6.7-1.7-9.4-5.1c0,0-1-0.6-2.8,1.3c0,0-6.1,4.4-18.8,4.7c0,0-7.4,0.8-18.3-5.3
			c0,0-7.8-4.6-9.8-12.4c0,0-1.4-5.5-0.3-13.9c0,0-4.2-2.8-16.6-4.4c0,0-13.1-1.2-19.4,0.4c0,0,1.2-2.9,13.7-5.3
			c0,0,11.6-1.5,19.6,1.9c0,0,2,1,3.3,1.9c0,0,2,1.4,5.2,1.5c0,0,4.8-0.3,12.6,2c0,0,3.5,1,14.8,7c0,0,0.9,0.8,6,1.7
			c0,0,4.2,0.7,8.2,4.2c0,0,2.1,1.3,6.3,8.4c0,0,6.3,8.4,15.8,9.8c0,0,1,0,1.7-0.1c0,0,3-5.5,4.9-7.6c0,0,2.1-2.6,4.9-5.1
			c2.8-2.4,5.4-5.1,5.5-8.1c0,0-0.1-1.7-1.6-2.4c0,0,4.9-0.5,6.5,4.6c0,0-0.3,1.8,1.3,1.2c0,0,1.5-0.6,4.5-0.6c0,0,1-7.2-5.5-16.8
			c0,0-1.7-2.6-6.4-7c0,0-7.3,0.5-20.7-2.4c0,0-14.1-3.9-19.3-3.9c0,0,7.2,7.1,9.8,13c2.6,6,11.6,11.3,13.9,12.1
			c0,0-2.2,4.6-14.5-6.8c0,0-12.7-12.4-15.7-15.3c0,0-10.3-11-23.2-13.5c0,0-12.4-2.2-24.6,2.7c0,0-10.5,3.8-23.2,6.6
			c0,0-7.6,1.7-11.5,4.7c0,0-0.4-2.6,12.3-7.2c0,0,8.9-3.1,10.7-4.9c0,0-7.7,1.4-14.8,2.3c0,0-9.9,1.1-25.8,7.6
			c0,0-18.5,8.5-27.5,16.8c0,0,1.9-1.9,33.5-1.8c0,0,9.4-0.3,15.2,3.9c0,0-8.8,0.6-20.1,5.8c0,0-10.4,3.9-19.7,10.7
			c0,0,4.6-1.3,31.5-0.9c0,0,11.4,0.1,13.4,4.4c0,0,0.3,1.2-14.3,5.6c0,0-7.2,2.8-10,5.6c0,0,14.1-0.9,30.3,0.3
			c0,0,9.3,0.7,11.4,1.1l0.8,0.1c0,0-2.6-13.8,0.9-18.6c0,0-0.9,16.4,15,21.5c0,0,2.2,1,24.1,2.4c0,0,3.7,0.6,4.1,2.2
			c0,0-35.5,1.7-57.6,20.9c0,0-12.8,11.4-16,20.7c0,0-5.1,14.4-5.5,24.8c0,0,0.2,11.8,2.4,17.5c0,0,6.7-21.6,17-34.1
			c0,0,10.2-12.9,13.8-15.5c0,0,10.8-9.6,17.4-11.7l-6.9,10.9c0,0-11.2,18.5-13.7,27.3c-2.4,8.9-4,15-0.7,27.7
			c0,0,3.4,10.2,16.5,18.8C212.9,248.4,216.8,253.3,216.8,253.3z"/>
		<path class="st3" d="M208.2,91.1l6.7,1.3c0,0-0.3,1.7-0.3,2.3c0,0,5.3-0.9,7.3,2.7c0,0,0.9,2.9-2.7,4.3c0,0-1.1,0.5-2.6,0.6
			c0,0,2.4,7.7,13.7,8.9c0,0,8.7,1,14.3-3c0,0,1.8-0.8,4.8,0.2c0,0,2.2,2.5-10.7,6c0,0-7.2,2.2-16.6-1c0,0-8-3-12.4-9.5
			C209.8,103.8,207.4,100.1,208.2,91.1z"/>
	</g>
</g>
<g id="Layer_3_copy">
	<g>
		<defs>
			<rect id="SVGID_00000003817076130487646590000009832149199327446188_" x="343.9" y="253.3" width="30.4" height="37.5"/>
		</defs>
		<clipPath id="SVGID_00000119093036798827566800000002696467621099751828_">
			<use xlink:href="#SVGID_00000003817076130487646590000009832149199327446188_"  style="overflow:visible;"/>
		</clipPath>
		<g style="clip-path:url(#SVGID_00000119093036798827566800000002696467621099751828_);">
			<path class="st2" d="M203.6,30.5c92,0,166.6,74.6,166.6,166.6s-74.6,166.6-166.6,166.6S37,289,37,197S111.7,30.5,203.6,30.5
				 M203.6,12.5c-24.9,0-49.1,4.9-71.9,14.5c-22,9.3-41.7,22.6-58.7,39.6s-30.3,36.7-39.6,58.7C23.9,148.1,19,172.2,19,197.2
				s4.9,49.1,14.5,71.9c9.3,22,22.6,41.7,39.6,58.7s36.7,30.3,58.7,39.6c22.8,9.6,46.9,14.5,71.9,14.5s49.1-4.9,71.9-14.5
				c22-9.3,41.7-22.6,58.7-39.6c16.9-16.9,30.3-36.7,39.6-58.7c9.6-22.8,14.5-46.9,14.5-71.9s-4.9-49.1-14.5-71.9
				c-9.3-22-22.6-41.7-39.6-58.7c-16.9-16.9-36.7-30.3-58.7-39.6C252.8,17.3,228.6,12.5,203.6,12.5L203.6,12.5z"/>
		</g>
	</g>
</g>
</svg>
